<svg width="32" height="32" viewBox="0 0 32 32" fill="none" xmlns="http://www.w3.org/2000/svg">
  <path d="M16 0C7.164 0 0 7.164 0 16C0 24.836 7.164 32 16 32C24.836 32 32 24.836 32 16C32 7.164 24.836 0 16 0ZM5.112 18.437C5.112 14.832 7.862 12.058 11.453 12.058C15.044 12.058 17.794 14.832 17.794 18.437C17.794 22.043 15.044 24.816 11.453 24.816C7.862 24.816 5.112 22.043 5.112 18.437ZM13.466 7.184C13.466 3.579 16.216 0.805 19.807 0.805C23.398 0.805 26.148 3.579 26.148 7.184C26.148 10.789 23.398 13.563 19.807 13.563C16.216 13.563 13.466 10.789 13.466 7.184Z" fill="#10a37f"/>
</svg> 